<?xml version="1.0" encoding="UTF-8" standalone="no"?>
<!DOCTYPE svg PUBLIC "-//W3C//DTD SVG 1.1//EN" "http://www.w3.org/Graphics/SVG/1.1/DTD/svg11.dtd">
<svg width="100%" height="100%" viewBox="0 0 326 370" version="1.1" xmlns="http://www.w3.org/2000/svg" xmlns:xlink="http://www.w3.org/1999/xlink" xml:space="preserve" xmlns:serif="http://www.serif.com/" style="fill-rule:evenodd;clip-rule:evenodd;stroke-linejoin:round;">
    <g id="Plan-de-travail2" serif:id="Plan de travail2" transform="matrix(0.991198,0,0,0.972182,-76.3835,-34.6798)">
        <rect x="77.062" y="35.672" width="328.339" height="379.688" style="fill:none;"/>
        <clipPath id="_clip1">
            <rect x="77.062" y="35.672" width="328.339" height="379.688"/>
        </clipPath>
        <g clip-path="url(#_clip1)">
            <g id="Plan-de-travail1" serif:id="Plan de travail1" transform="matrix(1.02027,0,0,0.869895,5.3158,-1.14647)">
                <rect x="-8.678" y="-11.55" width="479.753" height="542.901" style="fill:none;"/>
                <g transform="matrix(18.0132,0,0,21.5403,15.2307,2.06952)">
                    <path d="M12.8,21.538C12.509,21.706 12.363,21.791 12.208,21.824C12.071,21.853 11.929,21.853 11.792,21.824C11.637,21.791 11.492,21.706 11.2,21.538L4.14,17.462C3.848,17.294 3.703,17.21 3.597,17.092C3.503,16.988 3.432,16.865 3.389,16.732C3.34,16.581 3.34,16.413 3.34,16.076L3.34,7.924C3.34,7.587 3.34,7.419 3.389,7.268C3.432,7.135 3.503,7.012 3.597,6.908C3.703,6.791 3.848,6.706 4.14,6.538L11.2,2.462C11.492,2.294 11.637,2.21 11.792,2.177C11.929,2.148 12.071,2.148 12.208,2.177C12.363,2.21 12.509,2.294 12.8,2.462L19.86,6.538C20.152,6.706 20.298,6.791 20.404,6.908C20.497,7.012 20.568,7.135 20.611,7.268C20.66,7.419 20.66,7.587 20.66,7.924L20.66,16.076C20.66,16.413 20.66,16.581 20.611,16.732C20.568,16.865 20.497,16.988 20.404,17.092C20.298,17.21 20.152,17.294 19.86,17.462L12.8,21.538Z" style="fill:none;fill-rule:nonzero;stroke:rgb(255,137,0);stroke-width:0.52px;"/>
                </g>
            </g>
        </g>
    </g>
</svg>
