<?xml version="1.0" encoding="UTF-8" standalone="no"?>
<!DOCTYPE svg PUBLIC "-//W3C//DTD SVG 1.1//EN" "http://www.w3.org/Graphics/SVG/1.1/DTD/svg11.dtd">
<svg width="100%" height="100%" viewBox="0 0 800 800" version="1.1" xmlns="http://www.w3.org/2000/svg" xmlns:xlink="http://www.w3.org/1999/xlink" xml:space="preserve" xmlns:serif="http://www.serif.com/" style="fill-rule:evenodd;clip-rule:evenodd;stroke-linejoin:round;stroke-miterlimit:2;">
    <g transform="matrix(33.3333,0,0,33.3333,0,0)">
        <path d="M12.639,3.055L12.872,2.083L12.639,3.055ZM13.937,3.937L13.23,4.644L13.937,3.937ZM13.217,3.295L13.739,2.442L13.217,3.295ZM6.092,20.782L6.546,19.891L6.092,20.782ZM5.218,19.908L6.109,19.454L5.218,19.908ZM17.908,20.782L17.454,19.891L17.908,20.782ZM18.782,19.908L17.891,19.454L18.782,19.908ZM18.063,8.063L18.77,7.356L18.063,8.063ZM18.705,8.783L19.558,8.261L18.705,8.783ZM18.945,9.362L19.917,9.128L18.945,9.362ZM5.218,4.092L6.109,4.546L5.218,4.092ZM6.092,3.218L6.546,4.109L6.092,3.218ZM14,3.18C14,2.628 13.552,2.18 13,2.18C12.448,2.18 12,2.628 12,3.18L14,3.18ZM18.82,10C19.372,10 19.82,9.552 19.82,9C19.82,8.448 19.372,8 18.82,8L18.82,10ZM15.8,20L8.2,20L8.2,22L15.8,22L15.8,20ZM6,17.8L6,6.2L4,6.2L4,17.8L6,17.8ZM8.2,4L11.675,4L11.675,2L8.2,2L8.2,4ZM18,10.326L18,17.8L20,17.8L20,10.326L18,10.326ZM11.675,4C12.211,4 12.317,4.006 12.405,4.028L12.872,2.083C12.5,1.994 12.116,2 11.675,2L11.675,4ZM14.644,3.23C14.332,2.918 14.065,2.642 13.739,2.442L12.694,4.147C12.772,4.195 12.851,4.265 13.23,4.644L14.644,3.23ZM12.405,4.028C12.507,4.052 12.605,4.093 12.694,4.147L13.739,2.442C13.471,2.278 13.178,2.156 12.872,2.083L12.405,4.028ZM8.2,20C7.623,20 7.251,19.999 6.968,19.976C6.696,19.954 6.595,19.916 6.546,19.891L5.638,21.673C6.016,21.866 6.41,21.937 6.805,21.969C7.189,22.001 7.656,22 8.2,22L8.2,20ZM4,17.8C4,18.344 3.999,18.811 4.031,19.195C4.063,19.59 4.134,19.984 4.327,20.362L6.109,19.454C6.084,19.405 6.046,19.304 6.024,19.032C6.001,18.749 6,18.377 6,17.8L4,17.8ZM6.546,19.891C6.358,19.795 6.205,19.642 6.109,19.454L4.327,20.362C4.615,20.927 5.074,21.385 5.638,21.673L6.546,19.891ZM15.8,22C16.344,22 16.811,22.001 17.195,21.969C17.59,21.937 17.984,21.866 18.362,21.673L17.454,19.891C17.405,19.916 17.304,19.954 17.032,19.976C16.749,19.999 16.377,20 15.8,20L15.8,22ZM18,17.8C18,18.377 17.999,18.749 17.976,19.032C17.954,19.304 17.916,19.405 17.891,19.454L19.673,20.362C19.866,19.984 19.937,19.59 19.969,19.195C20.001,18.811 20,18.344 20,17.8L18,17.8ZM18.362,21.673C18.927,21.385 19.385,20.927 19.673,20.362L17.891,19.454C17.795,19.642 17.642,19.795 17.454,19.891L18.362,21.673ZM17.356,8.77C17.735,9.149 17.805,9.228 17.853,9.306L19.558,8.261C19.358,7.935 19.082,7.668 18.77,7.356L17.356,8.77ZM20,10.326C20,9.884 20.006,9.5 19.917,9.128L17.972,9.595C17.994,9.683 18,9.789 18,10.326L20,10.326ZM17.853,9.306C17.908,9.395 17.948,9.493 17.972,9.595L19.917,9.128C19.844,8.822 19.722,8.529 19.558,8.261L17.853,9.306ZM6,6.2C6,5.623 6.001,5.251 6.024,4.968C6.046,4.696 6.084,4.595 6.109,4.546L4.327,3.638C4.134,4.016 4.063,4.41 4.031,4.805C3.999,5.189 4,5.656 4,6.2L6,6.2ZM8.2,2C7.656,2 7.189,1.999 6.805,2.031C6.41,2.063 6.016,2.134 5.638,2.327L6.546,4.109C6.595,4.084 6.696,4.046 6.968,4.024C7.251,4.001 7.623,4 8.2,4L8.2,2ZM6.109,4.546C6.205,4.358 6.358,4.205 6.546,4.109L5.638,2.327C5.074,2.615 4.615,3.074 4.327,3.638L6.109,4.546ZM12,3.18L12,8L14,8L14,3.18L12,3.18ZM14,10L18.82,10L18.82,8L14,8L14,10ZM12,8C12,9.105 12.895,10 14,10L14,8L12,8ZM13.23,4.644L17.356,8.77L18.77,7.356L14.644,3.23L13.23,4.644Z" style="fill:rgb(213,213,213);fill-rule:nonzero;stroke:rgb(213,213,213);stroke-width:0.03px;"/>
    </g>
</svg>
